<svg width="325" height="69" viewBox="0 0 325 69" fill="none" xmlns="http://www.w3.org/2000/svg">
<path d="M118.631 43.6176C118.631 45.1309 118.328 46.4607 117.722 47.6024C117.116 48.7471 116.282 49.7053 115.223 50.4784C114.161 51.2515 112.932 51.8396 111.534 52.2426C110.137 52.6472 108.647 52.8495 107.065 52.8495H89.7422V17.0322H108.934C110.18 17.0322 111.308 17.302 112.318 17.8398C113.327 18.3777 114.186 19.0756 114.894 19.9318C115.601 20.7896 116.147 21.7666 116.535 22.858C116.921 23.9526 117.116 25.0535 117.116 26.1637C117.116 27.9107 116.678 29.551 115.803 31.0816C114.927 32.6121 113.648 33.7459 111.965 34.4861C114.018 35.0914 115.643 36.1766 116.838 37.7401C118.033 39.3035 118.631 41.2638 118.631 43.6176ZM96.7116 22.985V32.0146H106.005C107.182 32.0146 108.184 31.6116 109.01 30.804C109.834 29.9964 110.247 28.8861 110.247 27.4747C110.247 26.0963 109.869 25.0017 109.11 24.1957C108.354 23.3881 107.419 22.985 106.308 22.985H96.7116ZM111.61 42.305C111.61 41.6668 111.5 41.0536 111.282 40.464C111.063 39.8775 110.768 39.3631 110.399 38.9256C110.027 38.4881 109.591 38.1447 109.085 37.8922C108.58 37.6381 108.025 37.5127 107.419 37.5127H96.7116V46.9469H107.065C107.705 46.9469 108.302 46.8292 108.858 46.594C109.413 46.3588 109.894 46.031 110.297 45.6108C110.701 45.1889 111.021 44.6934 111.257 44.121C111.492 43.5502 111.61 42.9449 111.61 42.305Z" fill="white"></path>
<path d="M123.105 17.0828H130.075V52.8483H123.105V17.0828Z" fill="white"></path>
<path d="M164.369 23.1367H152.954V52.849H145.985V23.1367H134.521V17.0317H164.369V23.1367Z" fill="white"></path>
<path d="M198.107 52.849V29.1381L188.864 46.7958H185.076L175.834 29.1381V52.849H168.863V17.0317H176.338L186.944 37.4134L197.652 17.0317H205.078V52.849H198.107Z" fill="white"></path>
<path d="M227.45 53.1009C224.925 53.1009 222.619 52.5897 220.53 51.5625C218.442 50.537 216.651 49.1742 215.153 47.4759C213.654 45.7791 212.5 43.8377 211.693 41.6501C210.884 39.464 210.48 37.2278 210.48 34.9398C210.48 32.553 210.909 30.2666 211.768 28.0806C212.627 25.8945 213.822 23.961 215.354 22.2783C216.886 20.5972 218.695 19.2611 220.785 18.2669C222.87 17.2758 225.143 16.7803 227.602 16.7803C230.126 16.7803 232.433 17.3088 234.521 18.3688C236.608 19.4289 238.393 20.8168 239.875 22.5308C241.355 24.2464 242.502 26.1972 243.309 28.3833C244.117 30.5693 244.521 32.7883 244.521 35.0418C244.521 37.4301 244.092 39.7087 243.233 41.8775C242.374 44.0463 241.187 45.9626 239.672 47.628C238.157 49.2918 236.356 50.6216 234.268 51.6127C232.18 52.6054 229.907 53.1009 227.45 53.1009ZM217.5 34.9398C217.5 36.4876 217.728 37.9852 218.183 39.4311C218.637 40.877 219.293 42.1535 220.152 43.2637C221.011 44.374 222.063 45.2647 223.308 45.9375C224.554 46.6118 225.969 46.9474 227.552 46.9474C229.167 46.9474 230.59 46.6024 231.819 45.9124C233.047 45.224 234.083 44.3066 234.925 43.1634C235.766 42.0202 236.407 40.7327 236.845 39.3041C237.281 37.8755 237.501 36.4202 237.501 34.9398C237.501 33.3936 237.264 31.8975 236.794 30.4517C236.322 29.0058 235.658 27.7278 234.799 26.6175C233.94 25.5072 232.896 24.6243 231.667 23.9688C230.437 23.3133 229.048 22.9856 227.501 22.9856C225.884 22.9856 224.462 23.329 223.232 24.019C222.003 24.709 220.961 25.617 220.102 26.7429C219.243 27.8689 218.594 29.1485 218.158 30.5771C217.718 32.0073 217.5 33.461 217.5 34.9398Z" fill="white"></path>
<path d="M278.736 17.0828H285.707V52.8483H278.736V17.0828Z" fill="white"></path>
<path d="M300.152 29.896V52.8495H293.181V17.0322H298.586L317.273 40.5408V17.084H324.242V52.8495H318.587L300.152 29.896Z" fill="white"></path>
<path d="M268.153 17.0834L259.987 40.1325L251.736 17.0834H244.557L258.02 51.3042C258.759 53.186 261.43 53.1782 262.157 51.2885L275.35 17.0818L268.153 17.0834Z" fill="white"></path>
<path d="M25.5449 0.482666V16.1519L49.8713 33.115C50.8447 33.794 50.8447 35.2336 49.8713 35.911L25.5449 52.8725V68.5449L71.9069 36.2168C73.0923 35.3904 73.0923 33.6372 71.9069 32.8107L25.5449 0.482666Z" fill="white"></path>
<path d="M11.8857 11.8738V23.9064L25.0977 33.1195C26.0696 33.7954 26.0696 35.2318 25.0977 35.9077L11.8857 45.1208V57.1503L41.9082 36.2167C43.0936 35.3902 43.0936 33.637 41.9082 32.8106L11.8857 11.8738Z" fill="white"></path>
<path d="M1.38477 21.8298V29.4057L6.70566 33.116C7.67909 33.7951 7.67909 35.2331 6.70566 35.9121L1.38477 39.6224V47.1983L17.1418 36.2085C18.3224 35.3852 18.3224 33.6414 17.1418 32.8197L1.38477 21.8298Z" fill="white"></path>
</svg>