<?xml version="1.0" encoding="UTF-8"?> <svg xmlns="http://www.w3.org/2000/svg" xmlns:xlink="http://www.w3.org/1999/xlink" width="328.276" height="59.981" viewBox="0 0 328.276 59.981"><defs><clipPath id="clip-path"><rect id="Rectangle_287" data-name="Rectangle 287" width="328.276" height="59.981" fill="none"></rect></clipPath></defs><g id="cottages-logo" transform="translate(0 0)"><g id="Group_99" data-name="Group 99" transform="translate(0 0)" clip-path="url(#clip-path)"><path id="Path_223" data-name="Path 223" d="M81.591,42.826a1.042,1.042,0,0,0-.894-.45,1.917,1.917,0,0,0-1.13.6,7.564,7.564,0,0,1-5.276,1.868c-4.6,0-7.353-3.528-7.353-9.436,0-5.936,2.86-9.479,7.651-9.479a7.568,7.568,0,0,1,4.7,1.479,1.974,1.974,0,0,0,1.059.489,1.1,1.1,0,0,0,.863-.415l.93-1.24-.346-.329a10.288,10.288,0,0,0-7.325-2.777c-6.682,0-10.834,4.7-10.834,12.271,0,7.429,4.055,12.228,10.33,12.228,3.438,0,6.583-1.317,8.205-3.435l.259-.337Z" transform="translate(6.926 2.518)" fill="#ffffff"></path><path id="Path_224" data-name="Path 224" d="M94.288,44.847c-4.9,0-7.6-3.351-7.6-9.436,0-6.025,2.772-9.479,7.6-9.479,4.89,0,7.583,3.366,7.583,9.479,0,6.085-2.693,9.436-7.583,9.436m0-21.709c-6.738,0-10.925,4.7-10.925,12.273,0,7.543,4.187,12.23,10.925,12.23s10.9-4.687,10.9-12.23c0-7.569-4.178-12.273-10.9-12.273" transform="translate(9.072 2.518)" fill="#ffffff"></path><path id="Path_225" data-name="Path 225" d="M119.069,44.512a1.006,1.006,0,0,0-.8-.452,1.563,1.563,0,0,0-.911.465,4.112,4.112,0,0,1-2.681,1.07c-1.673,0-2.595-1.076-2.595-3.029v-14.9h7.161v-2.7h-7.161V16.269h-1.569A1.1,1.1,0,0,0,109.4,17.3l-.519,7.675-3.921.274V26.6a1.043,1.043,0,0,0,1.112,1.067h2.73V42.678c0,3.727,1.932,5.778,5.435,5.778a7.474,7.474,0,0,0,5.386-2.3l.273-.3Z" transform="translate(11.423 1.77)" fill="#ffffff"></path><path id="Path_226" data-name="Path 226" d="M134.747,44.512a1,1,0,0,0-.8-.452,1.581,1.581,0,0,0-.914.465,4.1,4.1,0,0,1-2.679,1.07c-1.673,0-2.595-1.076-2.595-3.029v-14.9h7.159v-2.7h-7.159V16.269h-1.569A1.094,1.094,0,0,0,125.08,17.3l-.519,7.675-3.921.274V26.6a1.042,1.042,0,0,0,1.11,1.067h2.732V42.678c0,3.727,1.932,5.778,5.435,5.778a7.476,7.476,0,0,0,5.386-2.3l.272-.3Z" transform="translate(13.129 1.77)" fill="#ffffff"></path><path id="Path_227" data-name="Path 227" d="M151.981,36.385V41.53c-2.162,2.177-4.154,3.525-7.355,3.525-1.926,0-3.99-1.011-3.99-3.852,0-2.91,3.817-4.532,11.344-4.818m-4.632-13.267a11.437,11.437,0,0,0-8.591,3.773l-.3.293.6,1.022a1.287,1.287,0,0,0,1.152.679c.48,0,.893-.337,1.468-.8a7.958,7.958,0,0,1,5.441-2.126c4.015,0,4.86,3.277,4.86,6.025v1.855c-12,.4-14.527,4.271-14.527,7.456,0,4.736,3.567,6.418,6.625,6.418a11.15,11.15,0,0,0,8.116-3.321l.213,1.911a1.328,1.328,0,0,0,1.368,1.043h1.409V31.982c0-5.633-2.856-8.864-7.836-8.864" transform="translate(14.959 2.515)" fill="#ffffff"></path><path id="Path_228" data-name="Path 228" d="M183.87,32.583c.7-4.287,3.4-6.743,7.432-6.743,3.769,0,6.213,2.58,6.4,6.743Zm14.889,9.792a2.142,2.142,0,0,0-1.087.514,10.153,10.153,0,0,1-6.1,1.934c-4.971,0-7.837-3.547-7.878-9.733l15.909-.033c.765,0,1.156-.472,1.156-1.407,0-6.385-3.723-10.512-9.483-10.512-6.464,0-10.809,4.75-10.809,11.816,0,7.825,4.195,12.687,10.945,12.687,3.516,0,7.225-1.443,8.816-3.428l.271-.339-.846-1.046a1.052,1.052,0,0,0-.9-.452" transform="translate(19.64 2.518)" fill="#ffffff"></path><path id="Path_229" data-name="Path 229" d="M211.536,33.569l-.039.129.039-.129c-2.863-.877-5.337-1.634-5.337-3.9,0-2.134,2.184-3.808,4.975-3.808a7.591,7.591,0,0,1,4.5,1.362,2.2,2.2,0,0,0,1.13.491,1.061,1.061,0,0,0,.958-.57l.725-1.138-.335-.3a9.821,9.821,0,0,0-7.02-2.566c-5.239,0-8.066,3.447-8.066,6.692,0,4.348,3.84,5.513,7.228,6.54,2.934.892,5.469,1.66,5.469,4.143,0,2.743-2.088,4.516-5.319,4.516a7.411,7.411,0,0,1-4.909-1.682,2.264,2.264,0,0,0-1.267-.629,1.155,1.155,0,0,0-1.087.605l-.786,1.165.345.312a10.769,10.769,0,0,0,7.614,2.907c5.1,0,8.521-3.039,8.521-7.56,0-4.333-3.9-5.526-7.336-6.579" transform="translate(22.026 2.518)" fill="#ffffff"></path><path id="Path_230" data-name="Path 230" d="M222.926,41.643a2.03,2.03,0,0,0-2,2.049,1.983,1.983,0,0,0,2,2,2.031,2.031,0,0,0,2.049-2,2.052,2.052,0,0,0-2.049-2.049" transform="translate(24.043 4.531)" fill="#ffffff"></path><path id="Path_231" data-name="Path 231" d="M168.174,44.849c-4.595,0-7.124-3.351-7.124-9.436,0-6.025,2.6-9.48,7.124-9.48s7.1,3.455,7.1,9.48c0,6.085-2.523,9.436-7.1,9.436m10.294-9.737-.007-10.756a1.114,1.114,0,0,0-1.122-1.191l-1.781-.037-.1,3.039a9.491,9.491,0,0,0-7.281-3.028c-6.36,0-10.311,4.7-10.311,12.273,0,7.543,3.951,12.228,10.311,12.228a9.563,9.563,0,0,0,7.135-2.852v3.036a6.355,6.355,0,0,1-.19,1.237c-1.008,3.652-3.394,5.584-6.9,5.584a9.2,9.2,0,0,1-5.733-1.925c-.461-.325-.738-.523-1.059-.523a.994.994,0,0,0-.862.439l-.812,1.059.249.327c1.507,1.995,5.026,3.441,8.368,3.441,4.78,0,8.205-2.578,9.648-7.268.016-.049.034-.1.048-.153a15.049,15.049,0,0,0,.395-3.859V35.332Z" transform="translate(17.18 2.517)" fill="#ffffff"></path><path id="Path_232" data-name="Path 232" d="M244.888,43.635l.169-.21a.661.661,0,0,0-.459-.2c-.246,0-.4.1-.67.339a8.205,8.205,0,0,1-5.875,2.16,7.335,7.335,0,0,1-5.876-2.606,11.789,11.789,0,0,1-2.232-7.573,11.714,11.714,0,0,1,2.26-7.541,7.725,7.725,0,0,1,6.2-2.723,7.844,7.844,0,0,1,5.144,1.689c.3.226.461.349.679.349a.672.672,0,0,0,.5-.228l.415-.479.324-.32-.34-.3a9.791,9.791,0,0,0-6.749-2.455,9.164,9.164,0,0,0-7.571,3.487,13.57,13.57,0,0,0-2.57,8.527c0,3.5.916,6.625,2.515,8.568a9.043,9.043,0,0,0,7.278,3.358c.054,0,.11,0,.166,0a11.071,11.071,0,0,0,4.673-1.043,6.954,6.954,0,0,0,2.693-2.086l.2-.293-.694-.625Z" transform="translate(24.838 2.561)" fill="#ffffff"></path><path id="Path_233" data-name="Path 233" d="M265.354,35.549a11.892,11.892,0,0,1-2.157,7.478,8.68,8.68,0,0,1-12.755,0,11.906,11.906,0,0,1-2.158-7.478,12.056,12.056,0,0,1,2.16-7.522,8.587,8.587,0,0,1,12.75,0,12.056,12.056,0,0,1,2.159,7.522M256.82,23.536a9.439,9.439,0,0,0-7.6,3.342,13.519,13.519,0,0,0-2.629,8.673,13.356,13.356,0,0,0,2.629,8.629,10.416,10.416,0,0,0,15.2,0,13.359,13.359,0,0,0,2.63-8.629,13.525,13.525,0,0,0-2.628-8.673,9.444,9.444,0,0,0-7.6-3.342" transform="translate(26.836 2.561)" fill="#ffffff"></path><path id="Path_234" data-name="Path 234" d="M291.438,23.536a7.274,7.274,0,0,0-7.088,4.9c-.894-3.214-3.013-4.9-6.18-4.9a8.173,8.173,0,0,0-6.7,3.708l-.043-2.538a.741.741,0,0,0-.761-.8h-.845V47.2h1.7L271.5,29.963c1.746-3.023,4.184-4.826,6.528-4.826a4.446,4.446,0,0,1,3.914,1.821A10.363,10.363,0,0,1,283.4,32.49V47.2h1.692V32.492a8.93,8.93,0,0,1,1.986-5.515,5.428,5.428,0,0,1,4.258-1.84c3.8,0,5.886,2.578,5.886,7.258V47.2h1.691V32.4c0-5.464-2.864-8.86-7.475-8.86" transform="translate(29.364 2.561)" fill="#ffffff"></path><path id="Path_235" data-name="Path 235" d="M41,57.219c-8.917-7.154-16.23-10.92-23.265-12.695,5.688-3.539,17.81-9.355,36.179-9.712V57.219ZM2.692,45.952c11.193-.53,20.728,1.374,33.916,11.267H2.692Zm0-2.707V33.619a51.5,51.5,0,0,1,34.013.521c-11.887,2.7-19.5,7.349-22.692,9.62a55.236,55.236,0,0,0-11.321-.514M28.237,2.9l25.68,14.712V32.1a86.909,86.909,0,0,0-12.443,1.108A53.656,53.656,0,0,0,2.692,30.757V17.61Zm27.7,12.762L28.907.179a1.345,1.345,0,0,0-1.343,0L.673,15.662A1.351,1.351,0,0,0,0,16.832V58.566a1.348,1.348,0,0,0,1.345,1.348h53.92a1.351,1.351,0,0,0,1.348-1.348V16.832a1.346,1.346,0,0,0-.679-1.17" transform="translate(0 0)" fill="#adc16a"></path></g></g></svg> 