<svg width="222" height="33" viewBox="0 0 222 33" fill="none" xmlns="http://www.w3.org/2000/svg">
<path d="M17.9779 4.72185V28.2767C17.9779 29.8286 19.2322 31.0884 20.7774 31.0884C22.3225 31.0884 23.5768 29.8286 23.5768 28.2767V4.72185C23.5768 3.16995 22.3225 1.91016 20.7774 1.91016C19.2322 1.91016 17.9779 3.16995 17.9779 4.72185ZM10.0414 11.1056V28.2722C10.0414 29.8264 11.2957 31.0839 12.8409 31.0839C14.386 31.0839 15.6403 29.8241 15.6403 28.2722V11.0989C15.6403 9.54475 14.386 8.28718 12.8409 8.28718C11.2957 8.28718 10.0414 9.54698 10.0414 11.0989V11.1056ZM2.10938 14.2918V28.2767C2.10938 29.8286 3.36368 31.0884 4.9088 31.0884C6.45392 31.0884 7.70822 29.8286 7.70822 28.2767V14.2985C7.70822 12.7466 6.45392 11.4868 4.9088 11.4868C3.36368 11.4868 2.10938 12.7466 2.10938 14.2985V14.2918ZM25.91 18.8583V28.2789C25.91 29.8331 27.1643 31.0906 28.7094 31.0906C30.2545 31.0906 31.5088 29.8308 31.5088 28.2789V18.8516C31.5088 17.2975 30.2545 16.04 28.7094 16.04C27.1643 16.04 25.91 17.2997 25.91 18.8516" fill="#B694FF"/>
<path d="M49.1199 16.035C49.7903 16.035 50.3387 15.4998 50.3564 14.8265C50.3387 14.1486 49.7948 13.6024 49.1199 13.5845H44.6977V9.70478C44.7066 8.9935 44.1405 8.40931 43.4323 8.40039C43.4234 8.40039 43.4123 8.40039 43.4034 8.40039C42.7019 8.40039 42.1336 8.97343 42.1336 9.67802C42.1336 9.68694 42.1336 9.69586 42.1336 9.70478V13.5867H40.9592C40.2888 13.5867 39.7404 14.1219 39.7227 14.7953C39.7404 15.4731 40.2843 16.0194 40.9592 16.0372H42.1336V25.8815C41.9538 28.3966 43.8385 30.5817 46.3449 30.7624C46.5891 30.7802 46.8355 30.778 47.0797 30.7557C47.9056 30.7512 48.7247 30.6018 49.4995 30.3142C49.9879 30.1492 50.3209 29.6921 50.3232 29.1726C50.3076 28.5126 49.777 27.9797 49.1199 27.964C48.9667 27.973 48.8158 28.0042 48.6715 28.0599C48.2386 28.2049 47.7835 28.2784 47.3262 28.274C45.5346 28.274 44.6999 27.4646 44.6999 25.7276V16.0394L49.1199 16.035Z" fill="#141827"/>
<path d="M59.1379 28.364C55.7724 28.2971 53.0995 25.501 53.1661 22.1207C53.1661 22.0694 53.1684 22.0204 53.1706 21.9691C53.0063 18.6736 55.5304 15.8686 58.8116 15.7036C58.8982 15.6991 58.987 15.6969 59.0735 15.6969C62.4302 15.7548 65.1031 18.5353 65.0453 21.9044C65.0453 21.9446 65.0431 21.9869 65.0409 22.0271V22.0895C65.2052 25.385 62.6766 28.19 59.3955 28.355C59.3111 28.3595 59.2245 28.364 59.1379 28.364ZM59.1379 13.213C54.376 13.1951 50.5021 17.057 50.4844 21.8398C50.4844 21.9022 50.4844 21.9669 50.4866 22.0293V22.0917C50.6043 26.8745 54.5603 30.6561 59.3222 30.5379C64.0841 30.4198 67.8492 26.4464 67.7315 21.6636C67.6139 16.9745 63.8044 13.2308 59.1379 13.213Z" fill="#141827"/>
<path d="M82.6659 13.4632C81.9799 13.4476 81.4138 13.9939 81.3983 14.6829C81.3983 14.7119 81.3983 14.7409 81.4005 14.7698V23.2763C81.5337 25.9698 79.4669 28.2597 76.7873 28.3935C76.6763 28.3979 76.5653 28.4002 76.4543 28.3979C73.6438 28.3979 71.9699 26.574 71.9699 23.5215V14.7676C71.9855 14.063 71.4305 13.4788 70.7289 13.4632C70.709 13.4632 70.689 13.4632 70.669 13.4632C69.983 13.4476 69.4169 13.9939 69.4014 14.6829C69.4014 14.7119 69.4014 14.7409 69.4036 14.7698V23.8025C69.1461 27.4302 71.8656 30.5809 75.4775 30.8395C75.7306 30.8573 75.9837 30.8618 76.2345 30.8506C78.1948 30.9109 80.0818 30.1037 81.396 28.641V29.2988C81.396 30.01 81.971 30.5875 82.6792 30.5875C83.3874 30.5875 83.9624 30.01 83.9624 29.2988V14.7698C83.9779 14.0652 83.4207 13.4811 82.7192 13.4654C82.7036 13.4632 82.6836 13.4632 82.6659 13.4632Z" fill="#141827"/>
<path d="M100.045 25.8504C99.714 25.8594 99.401 26.0043 99.179 26.2518C98.0046 27.5539 96.3507 28.3165 94.6036 28.3633C91.238 28.2964 88.5652 25.5004 88.6318 22.1201C88.6318 22.0688 88.634 22.0198 88.6362 21.9685C88.4941 18.6484 91.0582 15.8434 94.3638 15.7007C94.4016 15.6985 94.4393 15.6985 94.4792 15.6962C96.2042 15.7475 97.8337 16.5012 98.997 17.7833C99.5364 18.2716 100.367 18.227 100.851 17.6874C101.064 17.4488 101.184 17.1411 101.188 16.82C101.188 16.4677 101.05 16.131 100.806 15.8791C97.5007 12.4275 92.0373 12.3204 88.6007 15.6405C86.8713 17.3106 85.9123 19.6273 85.9545 22.0354V22.0978C85.9167 26.885 89.744 30.8027 94.5103 30.8539C96.979 30.8762 99.3366 29.8238 100.973 27.9664C101.188 27.7412 101.31 27.4402 101.312 27.1258C101.286 26.4346 100.735 25.8794 100.047 25.8549" fill="#141827"/>
<path d="M112.002 13.2133C110.041 13.1531 108.154 13.9625 106.84 15.423V7.9333C106.849 7.22202 106.281 6.63783 105.572 6.62891C105.561 6.62891 105.552 6.62891 105.541 6.62891C104.84 6.63114 104.274 7.20195 104.274 7.90431C104.274 7.91323 104.274 7.92438 104.274 7.9333V29.2963C104.258 30.0009 104.815 30.5829 105.515 30.5985C105.535 30.5985 105.552 30.5985 105.572 30.5985C106.258 30.6141 106.825 30.0678 106.84 29.3788C106.84 29.3521 106.84 29.3231 106.84 29.2963V20.7877C106.707 18.0964 108.769 15.8042 111.451 15.6705C111.562 15.6638 111.675 15.6638 111.786 15.666C114.597 15.666 116.271 17.4899 116.271 20.5424V29.2986C116.255 30.0032 116.812 30.5851 117.512 30.6007C117.532 30.6007 117.549 30.6007 117.569 30.6007C118.255 30.6163 118.821 30.0701 118.837 29.3811C118.837 29.3543 118.837 29.3253 118.837 29.2986V20.2615C118.837 15.9826 116.155 13.2133 112.006 13.2133" fill="#141827"/>
<path d="M128.841 20.6243C126.492 19.9465 124.831 19.3645 124.831 17.9954C124.831 16.6799 126.09 15.759 127.888 15.759C129.338 15.7925 130.752 16.2117 131.986 16.9765C132.202 17.1147 132.453 17.1883 132.71 17.1883C133.405 17.1794 133.967 16.6152 133.975 15.9173C133.967 15.4469 133.716 15.0143 133.312 14.7757C131.68 13.8303 129.835 13.3152 127.95 13.2773C124.638 13.2773 122.234 15.3398 122.234 18.2452C122.234 21.4181 125.371 22.3278 127.893 23.0569L128.026 23.0971C130.483 23.795 131.815 24.426 131.815 25.8196C131.815 27.2823 130.47 28.3035 128.539 28.3035C126.752 28.2879 125.018 27.6925 123.595 26.6089C123.359 26.4372 123.077 26.348 122.789 26.3502C122.092 26.3592 121.53 26.9233 121.523 27.6212C121.53 28.0136 121.71 28.3838 122.012 28.6313C123.89 29.9869 126.134 30.7361 128.445 30.7852C131.9 30.7852 134.408 28.6179 134.408 25.5698C134.408 22.1918 130.918 21.2107 128.836 20.6243" fill="#141827"/>
<path d="M145.296 16.035C145.966 16.035 146.514 15.4999 146.532 14.8265C146.514 14.1486 145.971 13.6024 145.296 13.5845H140.873V9.70478C140.882 8.9935 140.316 8.40931 139.608 8.40039C139.599 8.40039 139.588 8.40039 139.579 8.40039C138.878 8.40039 138.309 8.97343 138.309 9.6758C138.309 9.68472 138.309 9.69363 138.309 9.70255V13.5845H137.135C136.465 13.5845 135.916 14.1196 135.898 14.793C135.916 15.4709 136.46 16.0172 137.135 16.035H138.309V25.8792C138.13 28.3944 140.014 30.5795 142.521 30.7601C142.765 30.778 143.011 30.7757 143.256 30.7534C144.081 30.749 144.901 30.5996 145.675 30.312C146.164 30.147 146.497 29.6899 146.499 29.1703C146.481 28.5103 145.953 27.9774 145.296 27.9618C145.143 27.9707 144.992 28.002 144.847 28.0577C144.414 28.2026 143.959 28.2762 143.502 28.2717C141.71 28.2717 140.876 27.4624 140.876 25.7254V16.0372L145.296 16.035Z" fill="#141827"/>
<path d="M157.816 13.3379C155.474 13.4851 153.329 14.7069 152.004 16.6535V14.7694C152.004 14.0581 151.429 13.4806 150.721 13.4806C150.012 13.4806 149.438 14.0581 149.438 14.7694V29.3005C149.438 30.0118 150.012 30.5893 150.721 30.5893C151.429 30.5893 152.004 30.0118 152.004 29.3005V23.4631C152.004 18.415 155.032 16.3346 157.849 16.0715C158.599 16.0314 159.174 15.3892 159.134 14.6356C159.097 13.9265 158.524 13.3624 157.816 13.3423" fill="#141827"/>
<path d="M167.491 15.662C170.75 15.662 172.233 18.2908 172.569 20.7547H162.27C162.49 17.9809 164.723 15.8002 167.491 15.662ZM167.554 13.207C163.065 13.207 159.546 17.0667 159.546 22.0546C159.313 26.6679 162.849 30.5967 167.443 30.8308C167.562 30.8375 167.68 30.8397 167.8 30.842C170.266 30.9267 172.646 29.93 174.325 28.1105C174.829 27.6579 174.871 26.882 174.42 26.3758C174.176 26.1038 173.825 25.9544 173.459 25.9678C173.135 25.9678 172.826 26.1016 172.604 26.3357C171.372 27.6378 169.658 28.3714 167.869 28.358C164.95 28.3402 162.523 26.0949 162.27 23.1739H174.052C174.735 23.165 175.293 22.6187 175.317 21.932C175.317 16.8772 172.056 13.2093 167.56 13.2093" fill="#141827"/>
<path d="M184.31 22.0297C185.935 22.032 187.554 22.2349 189.132 22.6318V24.0187C189.132 26.4959 186.797 28.3666 183.691 28.3666C181.68 28.3666 179.644 27.3008 179.644 25.1982C179.642 23.2137 181.387 22.0297 184.31 22.0297ZM184.526 13.3382C182.663 13.3405 180.823 13.7552 179.138 14.5557C178.678 14.763 178.381 15.2201 178.376 15.7263C178.401 16.4264 178.987 16.9749 179.684 16.9504C179.855 16.9437 180.021 16.9036 180.177 16.8322C181.5 16.1722 182.958 15.8289 184.435 15.8289C186.564 15.8289 189.101 16.5758 189.101 20.1434C187.563 19.7732 185.984 19.5949 184.401 19.6105C179.895 19.6105 176.984 21.838 176.984 25.2896V25.352C176.984 28.9597 180.312 30.8483 183.598 30.8483C185.64 30.8974 187.618 30.1303 189.099 28.7167V29.2964C189.099 29.9988 189.665 30.5674 190.364 30.5674C191.064 30.5674 191.63 29.9988 191.63 29.2964V20.0743C191.723 18.286 191.088 16.5379 189.869 15.2313C188.411 13.9068 186.486 13.2245 184.524 13.336" fill="#141827"/>
<path d="M213.308 13.212C211.052 13.1496 208.921 14.2511 207.655 16.1285C206.521 14.2622 204.479 13.1496 202.303 13.212C200.489 13.154 198.747 13.93 197.574 15.3213V14.7639C197.574 14.0526 196.999 13.4751 196.291 13.4751C195.583 13.4751 195.008 14.0526 195.008 14.7639V29.2951C194.993 29.9997 195.55 30.5816 196.249 30.5972C196.269 30.5972 196.287 30.5972 196.307 30.5972C196.993 30.6128 197.559 30.0666 197.574 29.3776C197.574 29.3508 197.574 29.3218 197.574 29.2951V20.8243C197.386 18.1687 199.375 15.8632 202.019 15.6714C202.041 15.6692 202.066 15.6692 202.088 15.6669C204.643 15.6669 206.168 17.4552 206.168 20.4542V29.3018C206.153 30.0063 206.71 30.5883 207.409 30.6039C207.429 30.6039 207.447 30.6039 207.467 30.6039C208.153 30.6195 208.719 30.0732 208.734 29.3843C208.734 29.3575 208.734 29.3285 208.734 29.3018V20.7351C208.734 17.2567 211.041 15.6714 213.186 15.6714C215.818 15.6714 217.328 17.4485 217.328 20.5478V29.304C217.315 30.0086 217.87 30.5905 218.571 30.6061C218.589 30.6061 218.609 30.6061 218.627 30.6061C219.31 30.6218 219.879 30.0799 219.894 29.3932C219.894 29.3642 219.894 29.3352 219.894 29.3062V20.3628C219.894 16.0259 217.31 13.2232 213.312 13.2232" fill="#141827"/>
</svg>
